{"title":"Eminem - Rap God  [Explicit] 720p [Sbyky]","uid":9268679,"size":89391599,"categoryP":"video","categoryS":"music_videos","magnet":"?xt=urn:btih:5c1fc0320b69e027a4e284c2f28cf9fbb76fc787&amp;dn=Eminem+-+Rap+God++%5BExplicit%5D+720p+%5BSbyky%5D&amp;tr=udp%3A%2F%2Ftracker.openbittorrent.com%3A80&amp;tr=udp%3A%2F%2Fopen.demonii.com%3A1337&amp;tr=udp%3A%2F%2Ftracker.coppersurfer.tk%3A6969&amp;tr=udp%3A%2F%2Fexodus.desync.com%3A6969","seeders":1,"leechers":1,"uploader":"Sbyky","files":1,"time":1385738413,"description":"\n\nGeneral\nComplete name                            : Eminem - Rap God  [Explicit] 720p [Sbyky].MP4\nFormat                                   : MPEG-4\nFormat profile                           : Base Media\nCodec ID                                 : isom\nFile size                                : 85.3 MiB\nDuration                                 : 6mn 9s\nOverall bit rate mode                    : Variable\nOverall bit rate                         : 1 937 Kbps\nEncoded date                             : UTC 2013-11-27 04:15:18\nTagged date                              : UTC 2013-11-27 04:15:18\n\nVideo\nID                                       : 1\nFormat                                   : AVC\nFormat/Info                              : Advanced Video Codec\nFormat profile                           : &lt;a class=&quot;__cf_email__&quot; href=&quot;/cdn-cgi/l/email-protection&quot; data-cfemail=&quot;6e230f07002e225d405f&quot;&gt;[email&amp;#160;protected]&lt;/a&gt;&lt;script cf-hash='f9e31' type=&quot;text/javascript&quot;&gt;\n/* &lt;![CDATA[ */!function(){try{var t=&quot;currentScript&quot;in document?document.currentScript:function(){for(var t=document.getElementsByTagName(&quot;script&quot;),e=t.length;e--;)if(t[e].getAttribute(&quot;cf-hash&quot;))return t[e]}();if(t&amp;&amp;t.previousSibling){var e,r,n,i,c=t.previousSibling,a=c.getAttribute(&quot;data-cfemail&quot;);if(a){for(e=&quot;&quot;,r=parseInt(a.substr(0,2),16),n=2;a.length-n;n+=2)i=parseInt(a.substr(n,2),16)^r,e+=String.fromCharCode(i);e=document.createTextNode(e),c.parentNode.replaceChild(e,c)}}}catch(u){}}();/* ]]&gt; */&lt;/script&gt;\nFormat settings, CABAC                   : Yes\nFormat settings, ReFrames                : 3 frames\nCodec ID                                 : avc1\nCodec ID/Info                            : Advanced Video Coding\nDuration                                 : 6mn 9s\nDuration_LastFrame                       : -41ms\nBit rate                                 : 1 680 Kbps\nWidth                                    : 1 280 pixels\nHeight                                   : 720 pixels\nDisplay aspect ratio                     : 16:9\nFrame rate mode                          : Constant\nFrame rate                               : 23.976 fps\nColor space                              : YUV\nChroma subsampling                       : 4:2:0\nBit depth                                : 8 bits\nScan type                                : Progressive\nBits/(Pixel*Frame)                       : 0.076\nStream size                              : 73.9 MiB (87%)\nEncoded date                             : UTC 2013-11-27 04:15:18\nTagged date                              : UTC 2013-11-27 04:15:18\n\nAudio\nID                                       : 2\nFormat                                   : AAC\nFormat/Info                              : Advanced Audio Codec\nFormat profile                           : LC\nCodec ID                                 : 40\nDuration                                 : 6mn 9s\nBit rate mode                            : Variable\nBit rate                                 : 254 Kbps\nChannel(s)                               : 2 channels\nChannel positions                        : Front: L R\nSampling rate                            : 44.1 KHz\nCompression mode                         : Lossy\nDelay relative to video                  : 42ms\nStream size                              : 11.2 MiB (13%)\nEncoded date                             : UTC 2013-11-27 04:11:50\nTagged date                              : UTC 2013-11-27 04:11:50\n\nShared By Sbyky\n","torrent":{"xt":"urn:btih:5c1fc0320b69e027a4e284c2f28cf9fbb76fc787","amp;dn":"Eminem+-+Rap+God++%5BExplicit%5D+720p+%5BSbyky%5D","amp;tr":["udp%3A%2F%2Ftracker.openbittorrent.com%3A80","udp%3A%2F%2Fopen.demonii.com%3A1337","udp%3A%2F%2Ftracker.coppersurfer.tk%3A6969","udp%3A%2F%2Fexodus.desync.com%3A6969"],"infoHash":"5c1fc0320b69e027a4e284c2f28cf9fbb76fc787","infoHashBuffer":{"type":"Buffer","data":[92,31,192,50,11,105,224,39,164,226,132,194,242,140,249,251,183,111,199,135]},"announce":[],"urlList":[]}}